<svg xmlns="http://www.w3.org/2000/svg" width="240" height="24" viewBox="0 0 240 24" fill="#000"><rect x="2.00" y="5.75" width="2" height="12.50" rx="1"/><rect x="8.00" y="2.89" width="2" height="18.22" rx="1"/><rect x="14.00" y="1.11" width="2" height="21.78" rx="1"/><rect x="20.00" y="1.72" width="2" height="20.56" rx="1"/><rect x="26.00" y="4.33" width="2" height="15.34" rx="1"/><rect x="32.00" y="1.91" width="2" height="20.18" rx="1"/><rect x="38.00" y="1.54" width="2" height="20.92" rx="1"/><rect x="44.00" y="3.41" width="2" height="17.18" rx="1"/><rect x="50.00" y="6.13" width="2" height="11.74" rx="1"/><rect x="56.00" y="5.63" width="2" height="12.74" rx="1"/><rect x="62.00" y="6.41" width="2" height="11.18" rx="1"/><rect x="68.00" y="7.73" width="2" height="8.54" rx="1"/><rect x="74.00" y="8.66" width="2" height="6.68" rx="1"/><rect x="80.00" y="8.90" width="2" height="6.20" rx="1"/><rect x="86.00" y="8.98" width="2" height="6.04" rx="1"/><rect x="92.00" y="8.71" width="2" height="6.58" rx="1"/><rect x="98.00" y="8.43" width="2" height="7.14" rx="1"/><rect x="104.00" y="7.22" width="2" height="9.56" rx="1"/><rect x="110.00" y="5.71" width="2" height="12.58" rx="1"/><rect x="116.00" y="4.99" width="2" height="14.02" rx="1"/><rect x="122.00" y="5.75" width="2" height="12.50" rx="1"/><rect x="128.00" y="2.89" width="2" height="18.22" rx="1"/><rect x="134.00" y="1.11" width="2" height="21.78" rx="1"/><rect x="140.00" y="1.72" width="2" height="20.56" rx="1"/><rect x="146.00" y="4.33" width="2" height="15.34" rx="1"/><rect x="152.00" y="1.91" width="2" height="20.18" rx="1"/><rect x="158.00" y="1.54" width="2" height="20.92" rx="1"/><rect x="164.00" y="3.41" width="2" height="17.18" rx="1"/><rect x="170.00" y="6.13" width="2" height="11.74" rx="1"/><rect x="176.00" y="5.63" width="2" height="12.74" rx="1"/><rect x="182.00" y="6.41" width="2" height="11.18" rx="1"/><rect x="188.00" y="7.73" width="2" height="8.54" rx="1"/><rect x="194.00" y="8.66" width="2" height="6.68" rx="1"/><rect x="200.00" y="8.90" width="2" height="6.20" rx="1"/><rect x="206.00" y="8.98" width="2" height="6.04" rx="1"/><rect x="212.00" y="8.71" width="2" height="6.58" rx="1"/><rect x="218.00" y="8.43" width="2" height="7.14" rx="1"/><rect x="224.00" y="7.22" width="2" height="9.56" rx="1"/><rect x="230.00" y="5.71" width="2" height="12.58" rx="1"/><rect x="236.00" y="4.99" width="2" height="14.02" rx="1"/></svg>